<svg width="10" height="16" viewBox="0 0 10 16" fill="currentColor" xmlns="http://www.w3.org/2000/svg">
<path d="M9.17171 0.453524C9.27659 0.55804 9.3598 0.682231 9.41658 0.818976C9.47336 0.955722 9.50259 1.10233 9.50259 1.2504C9.50259 1.39846 9.47336 1.54507 9.41658 1.68182C9.3598 1.81856 9.27659 1.94276 9.17171 2.04727L3.21952 7.99946L9.17171 13.9535C9.38305 14.1649 9.50178 14.4515 9.50178 14.7504C9.50178 15.0493 9.38305 15.3359 9.17171 15.5473C8.96036 15.7586 8.67372 15.8773 8.37483 15.8773C8.07595 15.8773 7.7893 15.7586 7.57796 15.5473L0.827958 8.79727C0.723078 8.69276 0.639861 8.56857 0.58308 8.43182C0.526299 8.29507 0.49707 8.14846 0.49707 8.0004C0.49707 7.85233 0.526299 7.70572 0.58308 7.56898C0.639861 7.43223 0.723078 7.30804 0.827958 7.20352L7.57796 0.453524C7.68247 0.348643 7.80667 0.265427 7.94341 0.208646C8.08016 0.151865 8.22677 0.122635 8.37483 0.122635C8.5229 0.122635 8.66951 0.151865 8.80625 0.208646C8.943 0.265427 9.06719 0.348643 9.17171 0.453524Z" fill="#2D3748"/>
</svg>
